
<svg xmlns="http://www.w3.org/2000/svg" version="1.1" height="15">
<g transform="scale(0.35)">
 <g id="Trashcan" transform="matrix(0.893143,0.000000,0.000000,0.888889,-328.7862,-530.8080)">
   <g id="g987">
   	<path fill="#333333" d="M408.302,604.218h-7.95c0.002-0.055,0.009-0.109,0.009-0.166v-1.6c0-2.91-2.384-5.293-5.294-5.293h-8.824    c-2.912,0-5.294,2.383-5.294,5.293v1.6c0,0.057,0.007,0.111,0.009,0.166h-7.95c-1.456,0-2.646,1.191-2.646,2.646v2.646    c0,1.457,1.19,2.648,2.646,2.648h0.883v-1.766h33.529v1.766h0.883c1.455,0,2.646-1.191,2.646-2.648v-2.646    C410.948,605.409,409.757,604.218,408.302,604.218z M385.333,601.571h10.588v2.646h-10.588V601.571z"
   id="path989" />
	<path fill="#333333" d="M375.654,613.042v26.469c0,1.457,1.19,2.648,2.647,2.648h24.705c1.456,0,2.647-1.191,2.647-2.648v-26.469    H375.654z M384.478,636.423c0,0.486-0.397,0.883-0.882,0.883h-1.765c-0.486,0-0.883-0.396-0.883-0.883v-17.646    c0-0.484,0.396-0.883,0.883-0.883h1.765c0.484,0,0.882,0.398,0.882,0.883V636.423z M392.419,636.423    c0,0.486-0.398,0.883-0.882,0.883h-1.766c-0.485,0-0.882-0.396-0.882-0.883v-17.646c0-0.484,0.396-0.883,0.882-0.883h1.766    c0.483,0,0.882,0.398,0.882,0.883V636.423z M400.36,636.423c0,0.486-0.398,0.883-0.883,0.883h-1.765    c-0.485,0-0.882-0.396-0.882-0.883v-17.646c0-0.484,0.396-0.883,0.882-0.883h1.765c0.484,0,0.883,0.398,0.883,0.883V636.423z"
   id="path991" />
</g>
</g>
</g>
</svg>
