    <svg xmlns="http://www.w3.org/2000/svg" version="1.1" height="15" align="left">
    <g transform="scale(0.35)">
     <g id="Plus" transform="matrix(0.888909,0.000000,0.000000,0.888909,-486.6508,-210.4863)">
         <path fill="#333333" d="M592.469,255.072c0-0.773-0.635-1.406-1.406-1.406H577c-0.773,0-1.406-0.634-1.406-1.406v-14.062   c0-0.773-0.633-1.406-1.406-1.406h-8.439c-0.773,0-1.406,0.633-1.406,1.406v14.062c0,0.772-0.633,1.406-1.406,1.406h-14.061   c-0.773,0-1.406,0.633-1.406,1.406v8.438c0,0.773,0.633,1.406,1.406,1.406h14.061c0.773,0,1.406,0.633,1.406,1.406v14.063   c0,0.773,0.633,1.406,1.406,1.406h8.439c0.773,0,1.406-0.633,1.406-1.406v-14.063c0-0.773,0.633-1.406,1.406-1.406h14.063   c0.771,0,1.406-0.633,1.406-1.406V255.072z"
       id="path776" />
    </g>
</g>
    </svg>